# xmcd
#
# Track frame offsets:
#	150
#	6481
#	20450
#	31920
#	51319
#	61667
#	74585
#	87541
#	105755
#	119755
#	136811
#	145880
#
# Disc length: 2149 seconds
#
# Revision: 0
# Processed by: cddbd v1.5.2PL0 Copyright (c) Steve Scherf et al.
# Submitted via: EZCDAudioConverter 1.0.6.1
#
DISCID=a608630c
DTITLE=Wil Nance - Songs and Stories Behind the Songs
DYEAR=1900
DGENRE=Country
TTITLE0=Story behind "Where Have I Been All My Life"\n
TTITLE1=Where Have I Been All My Life
TTITLE2=Story Behind "She's Everything"\n
TTITLE3=She's Everything
TTITLE4=Story Behind "Cool To Be A Fool"
TTITLE5=Cool To Be A Fool
TTITLE6=Story Behind "Round About Way"
TTITLE7=Round About Way
TTITLE8=Story Behind "Everything A Thing"
TTITLE9=Everything A Thing
TTITLE10=Story Behind " I Get To"
TTITLE11=I Get To
EXTD=
EXTT0=
EXTT1=
EXTT2=
EXTT3=
EXTT4=
EXTT5=
EXTT6=
EXTT7=
EXTT8=
EXTT9=
EXTT10=
EXTT11=
PLAYORDER=
